<?xml version="1.0" encoding="utf-8"?>
<!-- Generator: Adobe Illustrator 24.2.1, SVG Export Plug-In . SVG Version: 6.00 Build 0)  -->
<svg version="1.1" id="Layer_1" xmlns="http://www.w3.org/2000/svg" xmlns:xlink="http://www.w3.org/1999/xlink" x="0px" y="0px"
	 viewBox="0 0 1041.3 225" style="enable-background:new 0 0 1041.3 225;" xml:space="preserve">
<style type="text/css">
	.st0{fill:#AAAAAA;}
	.st1{fill:#848484;}
</style>
<path class="st0" d="M489.5,112.8v36h-13.9v-30.4h-64.4v-10h32.6V93.2h-37.5v-10h68.8V56.6h-64v-10h73.4c4.6,0.1,4.5,4.5,4.5,4.5
	v32.2h5.3v10h-36.8v15.2h27.9C487.1,108.4,489.5,110,489.5,112.8 M583.6,138.9h-43.5v-10.7h43.5V138.9z M512.6,92.3
	c0,4.5,3.8,4.8,4.3,4.8h66.7v21h-43.5v-10.3h-13.8v36.8c0,2.2,2,4.1,4.3,4.1h66.9V44.5h-13.9v42.6h-57.2V76.4h39.2V50.9
	c0-2.8-2.5-4.3-4.1-4.3h-48.9v10h39.2v9.8h-39.2L512.6,92.3 M661.7,109.2c9.1,0,16.5,7.5,16.5,16.7s-7.4,16.6-16.5,16.6
	c-9.2,0-16.5-7.4-16.5-16.6S652.5,109.2,661.7,109.2 M661.7,99c-16.7,0-30.3,12-30.3,26.7c0,14.7,13.6,26.7,30.3,26.7
	c16.7,0,30.3-12,30.3-26.7C692,110.9,678.5,99,661.7,99 M701.3,50.9v34.3h5v10h-89.7v-10h34.2V67.7h13.8v17.5h22.9V56.5h-66.7v-10
	h76.3C699.3,46.5,701.3,48.4,701.3,50.9 M871.3,109.5c9.1,0,16.6,7.5,16.6,16.6c0,9.2-7.5,16.6-16.6,16.6c-9.1,0-16.5-7.4-16.5-16.6
	C854.8,117,862.2,109.5,871.3,109.5 M871.4,99.3c-16.7,0-30.3,12-30.3,26.7c0,14.7,13.6,26.7,30.3,26.7c16.7,0,30.3-12,30.3-26.7
	C901.7,111.3,888.1,99.3,871.4,99.3 M911.1,51.3v34.3h5v10h-89.8v-10h34.2V68.1h13.8v17.5h22.9V56.9h-66.7v-10h76.2
	C909,46.9,911.1,48.7,911.1,51.3 M750.3,75.5c-6.6,0-11.9-5.8-11.9-12.8c0-7.1,5.3-12.8,11.9-12.8c6.6,0,11.9,5.8,11.9,12.8
	C762.2,69.8,756.9,75.5,750.3,75.5 M750.1,85.3c14,0,25.3-10.2,25.3-22.7c0-12.5-11.4-22.6-25.3-22.6c-14,0-25.3,10.2-25.3,22.6
	C724.7,75.1,736.1,85.3,750.1,85.3"/>
<path class="st0" d="M747.3,148.8h59.5V44.5h-13.9v43.8h-71v10.1h21.2v14.1H757V98.5h35.9v8.5h-21.5v10h21.5v21.8H757v-19.9h-13.9
	v25.7C743.1,146.5,744.7,148.8,747.3,148.8 M1019.8,139h-56.9v-29.9H949v35.7c0,1.9,1.6,4.2,4.1,4.2h66.7L1019.8,139z"/>
<path class="st0" d="M1005.9,139.4h14V45.2h-14V139.4z"/>
<path class="st0" d="M1009.2,73.3h32.2v-10h-32.2L1009.2,73.3z M949,85.7V56.8h39.2v-10h-13.9v0h-39.2v44c0,4.4,3.8,4.8,4.3,4.8
	h66.8v-10H949z"/>
<path class="st0" d="M806.3,190.9h3.4c3.8,0,6-2.1,6-5.4c0-3.1-1.9-5.1-5.6-5.1h-3.8V190.9z M810.5,195.2h-4.1v15.2h-4.4v-34.4h7.2
	c5.5,0,10.8,1.1,10.8,9.3c0,4.2-1.8,7.2-5.1,7.9h0.1c1.1,0.5,1.2,1.7,2,3.5l5.1,13.7h-4.6l-5.3-13.9
	C812,196.5,811.6,195.2,810.5,195.2 M465.2,190.9h3.4c3.8,0,6-2.1,6-5.4c0-3.1-1.9-5.1-5.6-5.1h-3.8V190.9z M469.4,195.2h-4.1v15.2
	h-4.4v-34.4h7.2c5.5,0,10.8,1.1,10.8,9.3c0,4.2-1.8,7.2-5.1,7.9h0c1.1,0.5,1.2,1.7,2,3.5l5,13.7h-4.6l-5.3-13.9
	C471,196.5,470.6,195.2,469.4,195.2 M919,190.9h3.4c3.8,0,6-2.1,6-5.4c0-3.1-1.9-5.1-5.6-5.1H919V190.9z M923.1,195.2H919v15.2h-4.4
	v-34.4h7.2c5.5,0,10.8,1.1,10.8,9.3c0,4.2-1.8,7.2-5.1,7.9h0.1c1.1,0.5,1.2,1.7,2,3.5l5.1,13.7H930l-5.3-13.9
	C924.7,196.5,924.3,195.2,923.1,195.2 M566.3,203.7v-27.6h4.4v34.4h-5.9l-12.3-27.7h-0.1v27.6h-4.4v-34.4h4c1.5,0,2.2,0.6,2.9,2
	L566.3,203.7z M684.2,203.7v-27.6h4.4l0,34.4h-5.8l-12.2-27.7h-0.1v27.6H666v-34.4h4c1.6,0,2.2,0.6,2.9,2L684.2,203.7z M757.4,192.1
	h4c2.4,0,5.5-1.5,5.5-6.1c0-4.3-3.7-5.9-6.1-5.9h-3.4L757.4,192.1z M753,176.1h7.8c5.7,0,10.4,2.2,10.4,10c0,7.6-4.8,10-9.8,10h-4
	v14.3H753V176.1z M826.4,176.1h4.4v15.2l11.6-15.1h5.3l-11.8,16.2l11.7,18.1h-5.2l-11.6-16.8v16.8h-4.4V176.1z M406.3,176.1h4.4
	v15.2l11.6-15.2h5.3l-11.7,16.3l11.7,18.1h-5.2l-11.6-16.8v16.8h-4.4L406.3,176.1z M726.7,206.5v-30.4h-4.4v31.7
	c0,1.5,0.9,2.7,1.8,2.7h13.8v-4L726.7,206.5z M620.5,176.1h-21.2v4.1h8.4v30.3h4.4v-30.3h8.5L620.5,176.1z M625.1,210.5h4.4v-34.4
	h-4.4V210.5z M965.2,210.5h4.4v-34.4h-4.4V210.5z M485.5,207.8c0,1.4,0.8,2.7,1.8,2.7h14.2v-4H490v-11.8h11v-4.1h-11v-10.5h11.6
	v-4.1h-16L485.5,207.8z M891,207.8c0,1.4,0.8,2.7,1.8,2.7H907v-4h-11.6v-11.8h11v-4.1h-11v-10.5H907v-4.1h-16V207.8z M1002.6,207.8
	c0,1.4,0.8,2.7,1.8,2.7h14.2v-4H1007v-11.8h11.1v-4.1H1007v-10.5h11.6v-4.1h-16L1002.6,207.8z M700.5,197.1l4.9-14.4l4.9,14.4H700.5
	z M707.5,176.1h-4.3l-11.7,34.4h4.3l3.2-9.3h12.7l3.2,9.3h4.4L707.5,176.1z M513.2,197.1l4.9-14.4l4.9,14.4H513.2z M520.2,176.1
	h-4.3l-11.7,34.4h4.4l3.2-9.3h12.6l3.2,9.3h4.4L520.2,176.1z M583.6,197.1l4.9-14.4l4.9,14.4H583.6z M590.6,176.1h-4.3l-11.7,34.4
	h4.3l3.3-9.3h12.6l3.2,9.3h4.4L590.6,176.1z M778.8,197.1l4.9-14.4l5,14.4H778.8z M785.9,176.1h-4.3l-11.8,34.4h4.4l3.2-9.3H790
	l3.2,9.3h4.4L785.9,176.1z M648.1,205.9c-5,0-9.1-5.6-9.1-12.5c0-6.9,4-12.6,9.1-12.6c5,0,9,5.6,9,12.6
	C657.1,200.3,653,205.9,648.1,205.9 M648.1,175.7c-7.4,0-13.3,7.9-13.3,17.8c0,9.8,5.9,17.7,13.3,17.7c7.4,0,13.3-8,13.3-17.7
	C661.4,183.6,655.4,175.7,648.1,175.7 M441.8,205.9c-5,0-9.1-5.6-9.1-12.5c0-6.9,4-12.6,9.1-12.6c5,0,9.1,5.6,9.1,12.6
	C450.8,200.3,446.7,205.9,441.8,205.9 M441.8,175.7c-7.4,0-13.4,7.9-13.4,17.8c0,9.8,6,17.7,13.4,17.7c7.4,0,13.4-8,13.4-17.7
	C455.1,183.6,449.1,175.7,441.8,175.7 M949.4,201.2c0,0-1.3,4.9-1.4,5.5c0-1-1.1-5.5-1.1-5.5L940,176h-3.9l10.1,35h3.7l10.5-35h-3.8
	L949.4,201.2z M980.8,178c-2,1.4-3.6,3.4-4.6,6c-1.1,2.6-1.6,5.6-1.6,9.1c0,3.2,0.5,6.2,1.4,9c0.9,2.8,2.4,4.9,4.2,6.4
	c1.8,1.4,4.2,2.2,7.1,2.2c2.8,0,5.2-1,7.1-2.9c1.9-1.9,3.4-4.7,4.1-8.3l-3.7-1.4l-0.1,0l-0.1,0.2c-0.5,2.8-1.4,4.8-2.7,6.1
	c-1.3,1.4-2.9,2.2-4.9,2.2c-1.5,0-3.1-0.6-4.4-1.6c-1.3-1-2.3-2.6-3-4.6c-0.7-2-1-4.5-1-7.3c0-2.2,0.3-4.2,0.8-6.3
	c0.5-2,1.5-3.6,2.8-4.8c1.3-1.2,3-1.7,5-1.7c1.8,0,3.2,0.5,4.3,1.6c1.2,1.1,2,2.8,2.6,5.1l3.7-0.8c-0.6-3.4-1.9-5.8-3.7-7.5
	c-1.9-1.7-4.1-2.6-6.9-2.6C984.9,176,982.7,176.7,980.8,178 M869.3,177.1c-1.5,0.8-2.6,1.9-3.4,3.4c-0.8,1.5-1.2,3.1-1.2,4.8
	c0,1.6,0.4,3,1,4.2c0.6,1.3,1.6,2.4,2.9,3.2c1,0.7,2.7,1.4,5.1,2.1c2.6,0.8,4,1.3,4.6,1.6c1.1,0.5,1.9,1.2,2.3,1.9
	c0.5,0.7,0.7,1.6,0.7,2.6c0,1-0.2,1.9-0.7,2.7c-0.5,0.8-1.2,1.5-2.2,2c-1,0.5-2.2,0.7-3.5,0.7c-1.5,0-2.8-0.3-4-1
	c-1.2-0.6-2.1-1.4-2.6-2.5c-0.6-1-0.9-2.3-1.1-4v-0.2l-3.7,0.4v0.2c0,2.3,0.5,4.3,1.5,6c1,1.8,2.3,3.1,3.9,4
	c1.6,0.9,3.7,1.3,6.1,1.3c1.9,0,3.6-0.4,5.1-1.3c1.6-0.9,2.7-2.1,3.5-3.7c0.9-1.7,1.3-3.3,1.3-5.1c0-1.8-0.4-3.4-1.2-4.8
	c-0.8-1.4-1.9-2.6-3.5-3.4c-1.1-0.6-3.1-1.3-5.9-2.2c-2.8-0.8-4.6-1.5-5.2-2.3c-0.6-0.7-0.9-1.7-0.9-2.7c0-1.3,0.5-2.4,1.4-3.3
	c0.9-0.9,2.4-1.4,4.5-1.4c2,0,3.5,0.5,4.5,1.6c1,1,1.6,2.5,1.8,4.5l0,0.2l3.7-0.3l-0.1-0.2c-0.1-2-0.5-3.7-1.3-5.4
	c-0.8-1.5-2-2.7-3.5-3.6c-1.5-0.8-3.3-1.2-5.3-1.2C872.3,176,870.7,176.4,869.3,177.1"/>
<path class="st0" d="M0,119.9c0,0,188.4,50.1,231.7,105.1c0,0,11.3-24,40.8-50.1c-82.4-41.8-202.6-55-202.6-55H0z"/>
<path class="st0" d="M380.6,119.9c-49.8,12.4-84.7,34.4-108.1,55c5.1,2.6,10.2,5.3,15.1,8.2c0,0,37.2-49.6,109.7-63.3H380.6z"/>
<path class="st1" d="M69.9,119.9c0,0,120.2,13.2,202.6,55c23.4-20.7,58.3-42.6,108.1-55H69.9z"/>
<path class="st0" d="M177,39.7C163.7,25.8,152.6,11.9,147.5,0c0,0-64,96.5-147.5,112.3h79.4C126.4,103,161.1,62.1,177,39.7"/>
<path class="st0" d="M284.1,112.2c0,0-71.6-46.1-97.4-87.5c0,0-3.3,6-9.6,14.9c35,36.4,85.6,72.6,85.6,72.6H284.1z"/>
<path class="st1" d="M79.4,112.2h183.3c0,0-50.7-36.2-85.6-72.6C161.1,62.1,126.4,103,79.4,112.2"/>
</svg>
